<?xml version="1.0" encoding="utf-8"?>
<svg version="1.1" xmlns:xlink="http://www.w3.org/1999/xlink" width="16px" height="14px" xmlns="http://www.w3.org/2000/svg">
  <g transform="matrix(1 0 0 1 -220 -52 )">
    <path d="M 15.239651350363342 13.466608100644592  C 14.043376629474247 13.437132340676326  12.862341077004073 13.488714920620806  11.704164277162342 13.488714920620806  C 10.584085398368059 13.488714920620806  9.494484856411743 13.326598240795315  9.494484856411786 12.132829962080368  C 8.259367647260314 13.208678318845017  6.636738017478473 13.772339412504603  4.9760714201871625 13.702414180390765  C 2.042531499535471 13.702414180390765  0.5567125786859227 12.398111801794787  0.5567125786859227 9.811613864579042  C 0.5567125786859227 5.390249869338466  6.103769883190926 5.7071142889973725  9.464006519573775 5.493415029227413  L 9.464006519573775 3.4669565314088118  C 9.464006519573775 1.993168532995279  8.702048098625276 1.256274533788518  7.010500404119609 1.256274533788518  C 5.067506430700979 1.256274533788518  4.496037614989594 2.111071572868365  4.496037614989594 3.688024731170835  C 4.496037614989594 4.380705090425191  3.8864708782308037 4.513346010282416  3.2540453888435703 4.513346010282416  C 2.2787386100295146 4.513346010282416  1.585356446966346 4.513346010282416  1.585356446966346 3.415373951464343  C 1.585356446966346 0.9173032941534086  4.587472625503411 0.3793706747324683  6.858108719929944 0.3793706747324683  C 10.401215377340382 0.3793706747324683  12.953776087517847 0.8362449542406634  12.953776087517847 4.4322876703696705  L 12.953776087517847 10.533769983801676  C 12.953776087517847 12.346529221850307  13.129026524336041 12.582335301596478  15.239651350363342 12.611811061564746  L 15.239651350363342 13.466608100644592  Z M 9.479245687992782 8.816806965649917  L 9.464006519573775 6.370318888283473  C 6.583803688388495 6.613493908021698  4.252210920286113 6.7977174078233915  4.252210920286113 9.944254784436268  C 4.252210920286113 11.226450343056033  4.709385972855237 12.501276961683734  6.43141200419883 12.501276961683734  C 8.831581030186541 12.501276961683734  9.479245687992782 10.585352563746156  9.479245687992782 8.816806965649917  Z " fill-rule="nonzero" fill="#0079c1" stroke="none" transform="matrix(1 0 0 1 220 52 )" />
  </g>
</svg>