<?xml version="1.0" encoding="utf-8"?>
<svg version="1.1" xmlns:xlink="http://www.w3.org/1999/xlink" width="29px" height="21px" xmlns="http://www.w3.org/2000/svg">
  <g transform="matrix(1 0 0 1 -46 -47 )">
    <path d="M 22.586463074103058 19.39700520621713  L 22.58646307410305 19.36623380844805  C 20.906344755911633 19.36623380844805  19.226226437720204 19.36623380844805  17.546108119528782 19.36623380844805  L 17.546108119528782 18.435399025933567  C 18.30291817276816 18.435399025933567  20.429554422370824 18.381549079837697  20 17.319935856804648  L 20 3.2650999257802593  L 20.376577718644075 3.2650999257802593  L 12.64954707506999 19.612404990600638  L 11.892737021830614 19.612404990600638  L 4.339772690501619 3.2650999257802593  L 4.2792278862424675 3.2650999257802593  L 4.2792278862424675 17.319935856804648  C 4.2792278862424675 18.412320477606766  6.489113241701455 18.435399025933567  7.306468099199984 18.435399025933567  L 7.306468099199984 19.39700520621713  C 4.966871768276378 19.277767901551947  2.622867136062153 19.277767901551947  0.283270805138542 19.39700520621713  L 0.283270805138542 18.435399025933567  C 1.0400808583779237 18.435399025933567  3.000218896267912 18.350777682068625  3 17.319935856804648  L 3 2.257336648843099  C 3.000218896267912 1.2572662213482089  1.017376556780743 1.172644877483255  0.283270805138542 1.172644877483255  L 0.283270805138542 0.21103869719970392  C 2.674790573374981 0.31873858939146243  5.240376653856471 0.31873858939146243  7.631896422092926 0.21103869719970392  L 14.03450947249806 13.942774951648813  L 20.5809164330187 0.2725814927378532  C 22.85134659273684 0.3725885354873416  25.363955969491577 0.34950998716053705  27.66465853133929 0.2725814927378532  L 27.66465853133929 1.1726448774832494  C 26.90784847809991 1.1726448774832494  24.88716563595076 1.2264948235791286  24.88716563595076 2.257336648843099  L 24.88716563595076 17.319935856804648  C 24.88716563595076 18.381549079837683  26.87000797543794 18.435399025933567  27.66465853133929 18.435399025933567  L 27.66465853133929 19.39700520621713  C 25.976972112615467 19.343155260121257  24.26658139229448 19.39700520621713  22.586463074103058 19.39700520621713  Z " fill-rule="nonzero" fill="#0079c1" stroke="none" transform="matrix(1 0 0 1 46 47 )" />
  </g>
</svg>