<?xml version="1.0" encoding="utf-8"?>
<svg version="1.1" xmlns:xlink="http://www.w3.org/1999/xlink" width="32px" height="32px" xmlns="http://www.w3.org/2000/svg">
  <g transform="matrix(1 0 0 1 -85 -34 )">
    <path d="M 31.732533867753578 16.27317834863862  C 31.721755896020195 7.676408775010983  24.755384523511598 0.7100374025024068  16.158614949883983 0.6992594307690261  C 16.157799924161168 0.6992593028315433  16.156984898419935 0.6992592388627993  16.156169872687087 0.6992592388627993  C 7.553581474411524 0.6992592388627993  0.5798056857143531 7.673035027559965  0.5798056857143531 16.27562342583553  C 0.5798056857143531 24.8782118241111  7.553581474411524 31.851987612808262  16.156169872687087 31.851987612808262  C 24.75875827096265 31.851987612808262  31.732534059659812 24.8782118241111  31.732534059659812 16.27562342583553  C 31.732534059659812 16.274808400073308  31.73253399569107 16.273993374390805  31.732533867753578 16.27317834863862  Z M 23.020040053282 16.27317834863862  C 23.014660294955103 20.06120083002611  19.946632636651657 23.131415250737465  16.158614949883983 23.139493990242922  C 16.156984770742476 23.139495151339474  16.155354591232935 23.139495731887806  16.153724411677942 23.139495731887806  C 12.36156299529523 23.139495731887806  9.287408770073625 20.065341506666197  9.287408770073625 16.273180090283503  C 9.287408770073625 12.481018673900808  12.36156299529523 9.406864448679194  16.153724411677942 9.406864448679194  C 19.94588582806063 9.406864448679194  23.020040053282234 12.481018673900808  23.020040053282234 16.273180090283503  Z " fill-rule="nonzero" fill="#ec111a" stroke="none" transform="matrix(1 0 0 1 85 34 )" />
  </g>
</svg>