<?xml version="1.0" encoding="utf-8"?>
<svg version="1.1" xmlns:xlink="http://www.w3.org/1999/xlink" width="31px" height="46px" xmlns="http://www.w3.org/2000/svg">
  <g transform="matrix(1 0 0 1 -24 -20 )">
    <path d="M 25.91346277218636 41.67060080811106  C 27.36831281042504 40.35303763110289  28.530946743351954 38.74237994604148  29.32574119698585 36.94339277399116  C 30.00323356787331 35.29697731092037  30.293587441110795 33.62811072789862  30.293587441110795 31.368031319501444  C 30.293587441110795 28.31218443728673  29.343112796239378 25.583126078802728  27.61091618495934 23.679770020737564  C 25.593329014514268 21.457109145592  22.15127070528016 19.613622740729404  17.36415428241601 18.19171847716827  C 16.44120961363657 17.930651146360503  15.542077947524088 17.59099225753364  14.676519712192123 17.176428941607952  C 13.920089093042131 16.811692453360816  13.240900413672597 16.30346234958324  12.676304141000568 15.679687611543603  C 12.06333485305477 15.013637719664963  11.815169149432988 14.225353952497741  11.815169149432988 13.227526399121505  C 11.815169149432988 11.820589548861019  12.55966626029833 10.867664235386714  13.780641522117493 10.099337019287013  C 15.309342256427662 9.131444292512066  18.247624187309547 9.036650674941324  21.250429201133095 10.154217534722704  C 22.30813679962786 10.542811182752716  23.328221106508565 11.027951726583934  24.297904041608568 11.603562056001687  L 28.315706783245197 3.5785339579733186  C 26.826712561514512 2.680489159934707  24.69993248147585 1.5155254913679532  22.555780802183662 0.9667203370110241  C 20.457349470312845 0.42146605142808224  18.298169777617005 0.14817332368857264  16.13077073541576 0.15349088100939293  C 14.091624176515172 0.1265798825825021  12.063969065485432 0.46445055402007673  10.142532307022185 1.1513184343856275  C 8.42793955214285 1.8281024992351067  6.867150985865166 2.8463237308534532  5.553948447055456 4.144801094514331  C 4.24851083408146 5.463454136404882  3.212390502026758 7.026144624403778  2.503991949543769 8.744786115578771  C 1.8076828303143149 10.5268911679417  1.4629459592238663 12.428149012155142  1.4889942217306855 14.342598690019447  C 1.4889942217306855 16.48792792977835  2.503991949543769 19.96286238441109  5.050172068703242 22.35515394363061  C 7.802329721868792 24.94701101352538  10.924254273430796 25.867506931514953  12.179972733757005 26.346464157135546  C 13.435691194083216 26.82542138275614  14.815492506220316 27.24450895517416  15.698962411113861 27.593748598855832  C 16.60917139446678 27.934644567085776  17.477604588087793 28.37907149626441  18.287330699889033 28.91836467596279  C 18.868244339626415 29.306418036983978  19.342050559305104 29.835894521999275  19.664650354989917 30.45751367704564  C 19.94496940174768 31.059406422855066  20.046644422551505 31.72979555012967  19.95748588526362 32.388309992828646  C 19.86651135382409 33.408673767457365  19.38412550586501 34.353415126895484  18.61242777163357 35.022574733741905  C 17.800925920790345 35.78840738095816  16.34171158349427 36.227451504443714  14.269527958252402 36.227451504443714  C 12.532368032899937 36.227451504443714  10.762946566076637 35.7285377277556  8.998488413325775 34.95272680500557  C 7.523442066712445 34.28604389673814  6.092694130818337 33.52445207613354  4.7151483688138365 32.67269084554088  L 0 40.942186694146415  C 3.29564054409725 43.883283407722864  8.638648143074194 45.84650911899061  13.400947995576168 45.84650911899061  C 15.818971380487167 45.84875109711756  18.221787189270614 45.462199245504465  20.518340375448847 44.70150200149138  C 22.55578080218367 44.0080118518949  24.57336797262875 42.87547757881287  25.91346277218636 41.67060080811106  Z " fill-rule="nonzero" fill="#ec111a" stroke="none" transform="matrix(1 0 0 1 24 20 )" />
  </g>
</svg>