<?xml version="1.0" encoding="utf-8"?>
<svg version="1.1" xmlns:xlink="http://www.w3.org/1999/xlink" width="29px" height="32px" xmlns="http://www.w3.org/2000/svg">
  <g transform="matrix(1 0 0 1 -57 -34 )">
    <path d="M 28.45670365395018 26.74626591736769  L 22.14887336818027 20.57440670105385  C 20.816332305858996 22.196149290566407  18.803839834404886 23.139493990242922  16.676622493303043 23.139493990242922  C 12.799380532322019 23.139493990242922  9.656254898201206 20.065339765021314  9.656254898201206 16.27317834863862  C 9.656254898201206 12.481016932255924  12.799380532322019 9.406862707034316  16.676622493303043 9.406862707034316  C 18.803839834404886 9.406862707034316  20.816332305858996 10.350207406710835  22.14887336818027 11.971949996223389  L 28.45670365395018 5.800090779909547  C 25.44399449089148 2.5498312321582883  21.166613796712504 0.697002772764953  16.681087068149022 0.6992594307690261  C 7.900627312451856 0.6992594307690261  0.2552269898658812 6.812432188607617  0.2552269898658812 16.27317834863862  C 0.2552269898658812 25.733924508669624  7.900627312451856 31.849542535611352  16.681087068149022 31.849542535611352  C 21.166933682201996 31.850867394248315  25.44425368930905 29.997177014473596  28.45670365395018 26.74626591736769  Z " fill-rule="nonzero" fill="#ec111a" stroke="none" transform="matrix(1 0 0 1 57 34 )" />
  </g>
</svg>