<?xml version="1.0" encoding="utf-8"?>
<svg version="1.1" xmlns:xlink="http://www.w3.org/1999/xlink" width="34px" height="32px" xmlns="http://www.w3.org/2000/svg">
  <g transform="matrix(1 0 0 1 -154 -34 )">
    <path d="M 24.527321152636603 31.10862599736132  L 33.74966686461791 31.108625997361308  L 33.74966686461791 1.4377306999159265  L 24.527321152636603 1.4377306999159265  L 24.527321152636603 4.557894075516745  L 23.67243381097086 3.807196460854168  C 21.35877068570689 1.772732567045484  18.774227559740666 0.6968141616658918  15.719993423382556 0.6968141616658918  C 7.581167714210179 0.6968141616658918  0.7023067789463034 7.829664135511962  0.7023067789463034 16.273178348638623  C 0.7023067789463034 24.71669256176528  7.581167714210179 31.849542535611352  15.719993423382556 31.849542535611352  C 18.766772146877322 31.849542535611352  21.351315272843507 30.77362413023176  23.67243381097086 28.739160236423082  L 24.527321152636603 27.9884626217605  L 24.527321152636603 31.10862599736132  Z M 17.196165170328644 23.281319598224783  L 17.196165170328644 23.28376486732791  C 13.263540536810341 23.28241471567602  10.076245885816036 20.14515867864374  10.076245885816036 16.2756240443414  C 10.076245885816036 12.405134507534843  13.265054963477892 9.267482794755239  17.198650307949798 9.267482794755239  C 21.132245652421663 9.267482794755239  24.321054730083542 12.405134507534843  24.321054730083542 16.2756240443414  C 24.31557378045119 20.14443579117948  21.12805867055507 23.278626378394176  17.196165170328644 23.281319598224783  Z " fill-rule="nonzero" fill="#ec111a" stroke="none" transform="matrix(1 0 0 1 154 34 )" />
  </g>
</svg>