<?xml version="1.0" encoding="utf-8"?>
<svg version="1.1" xmlns:xlink="http://www.w3.org/1999/xlink" width="34px" height="32px" xmlns="http://www.w3.org/2000/svg">
  <g transform="matrix(1 0 0 1 -228 -34 )">
    <path d="M 24.195672936847938 31.10862599736132  L 33 31.108625997361308  L 33 1.4377306999159265  L 24.195672936847938 1.4377306999159265  L 24.195672936847938 4.557894075516745  L 23.34078559518219 3.807196460854168  C 21.02960760753934 1.772732567045484  18.442579343952 0.6968141616658918  15.388345207593892 0.6968141616658918  C 7.249519498421492 0.6968141616658918  0.37314370077877396 7.829664135511962  0.37314370077877396 16.273178348638623  C 0.37314370077877396 24.71669256176528  7.249519498421492 31.849542535611352  15.388345207593892 31.849542535611352  C 18.43512393108864 31.849542535611352  21.022152194675975 30.77362413023176  23.34078559518219 28.739160236423082  L 24.195672936847938 27.9884626217605  L 24.195672936847938 31.10862599736132  Z M 16.86700209216109 23.281319598224783  L 16.86700209216109 23.28376486732791  C 12.933406747689185 23.28376486732791  9.744597670027305 20.14611315454831  9.744597670027305 16.275623617741754  C 9.744597670027305 12.405134080935197  12.933406747689185 9.267482368155594  16.867002092161048 9.267482368155594  C 20.80059743663296 9.267482368155594  23.989406514294835 12.405134080935197  23.989406514294835 16.275623617741754  C 23.982563005292306 20.142924389408698  20.7973588296678 23.2759354861733  16.86700209216109 23.281319598224783  Z " fill-rule="nonzero" fill="#ec111a" stroke="none" transform="matrix(1 0 0 1 228 34 )" />
  </g>
</svg>