<?xml version="1.0" encoding="utf-8"?>
<svg version="1.1" xmlns:xlink="http://www.w3.org/1999/xlink" width="33px" height="45px" xmlns="http://www.w3.org/2000/svg">
  <g transform="matrix(1 0 0 1 -192 -21 )">
    <path d="M 0.20648791636575464 44.09583989486444  L 9.358967151461487 44.09583989486444  L 9.358967151461487 40.9309200774005  L 10.207149494369071 41.69238589555209  C 12.50020059583433 43.75603267308344  15.066938441668041 44.847384334277905  18.09721780048609 44.847384334277905  C 26.172209582527724 44.847384334277905  32.994653020973246 37.61221888949552  32.994653020973246 29.047588693803515  C 32.994653020973246 20.482958498111508  26.172209582527724 13.247793053329127  18.09721780048609 13.247793053329127  C 15.074335380705007 13.247793053329127  12.507597534871337 14.339144714523588  10.207149494369071 16.402791492054938  L 10 17.164257310206526  L 10 0.15901415304917216  L 0.20648791636575464 0.15901415304917216  L 0.20648791636575464 44.09583989486444  Z M 16.630158224817475 36.15625655967473  C 12.729667017779397 36.15079172858384  9.569048245058054 32.971331711315734  9.563615798151407 29.047588693803515  C 9.563615798151407 25.121579839870638  12.727414608537504 21.938920827932307  16.630158224817436 21.938920827932307  C 20.532901841097384 21.938920827932307  23.696700651483482 25.121579839870638  23.696700651483482 29.047588693803515  C 23.696700651483482 32.9735975477364  20.532901841097384 36.15625655967473  16.630158224817436 36.15625655967473  Z " fill-rule="nonzero" fill="#ec111a" stroke="none" transform="matrix(1 0 0 1 192 21 )" />
  </g>
</svg>