<?xml version="1.0" encoding="utf-8"?>
<svg version="1.1" xmlns:xlink="http://www.w3.org/1999/xlink" width="11px" height="11px" xmlns="http://www.w3.org/2000/svg">
  <g transform="matrix(1 0 0 1 -331 -54 )">
    <path d="M 10.99999999999996 5.604895314857803  C 10.998639488855073 2.717210890501598  8.65804852520797 0.3766199268545123  5.770364100851797 0.3752594157096316  C 2.882115946584569 0.3752594157096316  0.5407282017035944 2.716647160590622  0.5407282017035944 5.604895314857814  C 0.5407282017035944 8.49314346912501  2.882115946584569 10.834531214005985  5.770364100851797 10.834531214005985  C 8.658612255118943 10.834531214005985  10.99999999999996 8.493143469124995  10.99999999999996 5.604895314857814  Z M 5.772829747197515 9.779235306251435  C 5.772007865028751 9.779235306251435  5.771185982877246 9.779235063521888  5.770364100851797 9.779234578062841  C 3.4635791740473794 9.779234578062916  1.5935599190598926 7.909215323075454  1.5935599190598926 5.602429668512216  C 1.5935599190598926 3.2956440139489827  3.4635791740473794 1.4256247589615276  5.770364828610612 1.4256247589615276  C 8.077150483173803 1.4256247589615276  9.947169738161332 3.2956440139489827  9.947169738161332 5.602429668512216  C 9.947169738161332 5.603251550733263  9.947169495575004 5.6040734327799715  9.947169010402474 5.604895314857814  C 9.947169010402558 7.910319958734455  8.078253662885531 9.779235306251435  5.772829747197515 9.779235306251435  Z " fill-rule="nonzero" fill="#ec111a" stroke="none" transform="matrix(1 0 0 1 331 54 )" />
  </g>
</svg>