<?xml version="1.0" encoding="utf-8"?>
<svg version="1.1" xmlns:xlink="http://www.w3.org/1999/xlink" width="5px" height="7px" xmlns="http://www.w3.org/2000/svg">
  <g transform="matrix(1 0 0 1 -335 -56 )">
    <path d="M 3.1009583119334088 6.639514618475356  L 2.039449528054352 4.5369907346294  L 1.2229043096859218 4.5369907346294  L 1.2229043096859218 6.629054300645272  L 0.2190340118094371 6.629054300645272  L 0.2190340118094371 0.5829905948593992  L 2.3516579939012314 0.5829905948593992  C 2.3532595773676235 0.5829860577557524  2.354861165575975 0.5829837892010579  2.35646275446259 0.5829837892010579  C 3.375505223419201 0.5829837892010579  4.201972652641847 1.4817485298005213  4.203294356730802 2.5913716182346365  C 4.1901613686549615 3.3560443169812935  3.771595212603773 4.043271056715048  3.1297775549346136 4.353935172603013  L 4.30176010365171 6.639514618475356  L 3.1009583119334088 6.639514618475356  Z M 1.2229043096859218 1.6682485697301326  L 1.2229043096859218 3.522339905111702  L 2.3924852548194866 3.522339905111702  C 2.832433516149787 3.4782238568549753  3.1690537961700165 3.0763760409404846  3.1690537961700165 2.5952942374209123  C 3.1690537961700165 2.114212433901339  2.832433516149787 1.7123646179868484  2.3924852548194866 1.6682485697301326  L 1.2229043096859218 1.6682485697301326  Z " fill-rule="nonzero" fill="#ec111a" stroke="none" transform="matrix(1 0 0 1 335 56 )" />
  </g>
</svg>